<svg xmlns="http://www.w3.org/2000/svg" version="1.1" xmlns:xlink="http://www.w3.org/1999/xlink" xmlns:svgjs="http://svgjs.com/svgjs" width="30" height="30"><svg xmlns="http://www.w3.org/2000/svg" x="0px" y="0px" width="30" height="30" viewBox="0 0 172 172" style=" fill:#000000;vertical-align: bottom;"><g fill="none" fill-rule="nonzero" stroke="none" stroke-width="1" stroke-linecap="butt" stroke-linejoin="miter" stroke-miterlimit="10" stroke-dasharray="" stroke-dashoffset="0" font-family="none" font-weight="none" font-size="none" text-anchor="none" style="mix-blend-mode: normal"><path d="M0,172v-172h172v172z" fill="none"></path><g fill="#ffffff"><path d="M10.10397,6.61538c-1.82828,0 -3.30769,1.48103 -3.30769,3.30769v19.9366c0,1.82666 1.47942,3.30769 3.30769,3.30769c1.82828,0 3.30769,-1.48103 3.30769,-3.30769v-16.62891h16.62891c1.82828,0 3.30769,-1.48103 3.30769,-3.30769c0,-1.82666 -1.47942,-3.30769 -3.30769,-3.30769zM141.95944,6.61538c-1.82827,0 -3.30769,1.48103 -3.30769,3.30769c0,1.82666 1.47942,3.30769 3.30769,3.30769h16.6289v16.62891c0,1.82666 1.47942,3.30769 3.30769,3.30769c1.82828,0 3.30769,-1.48103 3.30769,-3.30769v-19.9366c0,-1.82666 -1.47942,-3.30769 -3.30769,-3.30769zM99.10156,24.31671c-4.05063,0 -7.34541,3.29477 -7.34541,7.3454v40.56445c0,4.05063 3.29477,7.3454 7.34541,7.3454h40.63552c4.05063,0 7.3454,-3.29478 7.3454,-7.3454v-40.56445c0,-4.05063 -3.29477,-7.3454 -7.3454,-7.3454zM29.52374,24.45883c-1.82828,0 -3.30769,1.48103 -3.30769,3.30769v14.47761c0,1.82666 1.47942,3.30769 3.30769,3.30769c1.82828,0 3.30769,-1.48103 3.30769,-3.30769v-11.16992h26.28711c1.82827,0 3.30769,-1.48103 3.30769,-3.30769c0,-1.82666 -1.47942,-3.30769 -3.30769,-3.30769zM71.4707,24.45883c-1.82828,0 -3.30769,1.48103 -3.30769,3.30769v12.15835h-22.37215c-1.82827,0 -3.30769,1.48103 -3.30769,3.30769c0,1.82666 1.47942,3.30769 3.30769,3.30769h25.67984c1.82827,0 3.30769,-1.48103 3.30769,-3.30769v-15.46604c0,-1.82666 -1.47942,-3.30769 -3.30769,-3.30769zM99.10156,30.93209h40.63552c0.40377,0 0.73002,0.32786 0.73002,0.73002v40.56445c0,0.40377 -0.32623,0.73002 -0.73002,0.73002h-40.63552c-0.40377,0 -0.73002,-0.32625 -0.73002,-0.73002v-40.56445c0,-0.40216 0.32624,-0.73002 0.73002,-0.73002zM108.29462,37.54747c-1.82827,0 -3.30769,1.48103 -3.30769,3.30769v22.17188c0,1.82666 1.47942,3.30769 3.30769,3.30769h22.2494c1.82827,0 3.30769,-1.48103 3.30769,-3.30769v-22.17188c0,-1.82666 -1.47942,-3.30769 -3.30769,-3.30769zM111.60231,44.16286h15.63402v15.55649h-15.63402zM29.52374,52.21244c-1.82828,0 -3.30769,1.48103 -3.30769,3.30769c0,1.82666 1.47942,3.30769 3.30769,3.30769h41.94697c1.82827,0 3.30769,-1.48103 3.30769,-3.30769c0,-1.82666 -1.47942,-3.30769 -3.30769,-3.30769zM29.52374,62.07091c-1.82828,0 -3.30769,1.48103 -3.30769,3.30769v10.74354c0,1.82666 1.47942,3.30769 3.30769,3.30769h43.09044c1.82827,0 3.30769,-1.48103 3.30769,-3.30769v-10.74354c0,-1.82666 -1.47942,-3.30769 -3.30769,-3.30769c-1.82828,0 -3.30769,1.48103 -3.30769,3.30769v7.43585h-14.92984v-3.9408c0,-1.82666 -1.47942,-3.30769 -3.30769,-3.30769c-1.82828,0 -3.30769,1.48103 -3.30769,3.30769v3.9408h-14.92984v-7.43585c0,-1.82666 -1.47942,-3.30769 -3.30769,-3.30769zM102.20253,90.47701c-1.82828,0 -3.30769,1.48103 -3.30769,3.30769v14.47761c0,1.82666 1.47942,3.30769 3.30769,3.30769c1.82827,0 3.30769,-1.48103 3.30769,-3.30769v-11.16992h26.28711c1.82828,0 3.30769,-1.48103 3.30769,-3.30769c0,-1.82666 -1.47942,-3.30769 -3.30769,-3.30769zM144.14303,90.47701c-1.82827,0 -3.30769,1.48103 -3.30769,3.30769v12.15835h-22.36569c-1.82827,0 -3.30769,1.48103 -3.30769,3.30769c0,1.82666 1.47942,3.30769 3.30769,3.30769h25.67338c1.82828,0 3.30769,-1.48103 3.30769,-3.30769v-15.46604c0,-1.82666 -1.47941,-3.30769 -3.30769,-3.30769zM30.7512,92.42803c-4.05063,0 -7.3454,3.29477 -7.3454,7.3454v40.56445c0,4.05063 3.29477,7.3454 7.3454,7.34541h40.63552c4.05063,0 7.3454,-3.29477 7.3454,-7.34541v-40.56445c0,-4.05063 -3.29477,-7.3454 -7.3454,-7.3454zM30.7512,99.04342h40.63552c0.40377,0 0.73002,0.32786 0.73002,0.73002v40.56445c0,0.40216 -0.32624,0.73002 -0.73002,0.73002h-40.63552c-0.40377,0 -0.73002,-0.32786 -0.73002,-0.73002v-40.56445c0,-0.40216 0.32625,-0.73002 0.73002,-0.73002zM39.94426,105.6588c-1.82828,0 -3.30769,1.48103 -3.30769,3.30769v22.17834c0,1.82666 1.47941,3.30769 3.30769,3.30769h22.2494c1.82827,0 3.30769,-1.48104 3.30769,-3.30769v-22.17834c0,-1.82666 -1.47942,-3.30769 -3.30769,-3.30769zM43.25195,112.27419h15.63401v15.56295h-15.63401zM102.20253,118.23062c-1.82828,0 -3.30769,1.48103 -3.30769,3.30769c0,1.82666 1.47942,3.30769 3.30769,3.30769h41.9405c1.82828,0 3.30769,-1.48103 3.30769,-3.30769c0,-1.82666 -1.47941,-3.30769 -3.30769,-3.30769zM102.20253,128.08909c-1.82828,0 -3.30769,1.48103 -3.30769,3.30769v10.74354c0,1.82666 1.47942,3.30769 3.30769,3.30769h43.08398c1.82828,0 3.30769,-1.48103 3.30769,-3.30769v-10.74354c0,-1.82666 -1.47941,-3.30769 -3.30769,-3.30769c-1.82827,0 -3.30769,1.48103 -3.30769,3.30769v7.43585h-14.92338v-3.93434c0,-1.82666 -1.47942,-3.30769 -3.30769,-3.30769c-1.82827,0 -3.30769,1.48103 -3.30769,3.30769v3.93434h-14.92983v-7.43585c0,-1.82666 -1.47942,-3.30769 -3.30769,-3.30769zM10.10397,138.83263c-1.82828,0 -3.30769,1.48103 -3.30769,3.30769v19.9366c0,1.82666 1.47942,3.30769 3.30769,3.30769h19.9366c1.82828,0 3.30769,-1.48103 3.30769,-3.30769c0,-1.82666 -1.47942,-3.30769 -3.30769,-3.30769h-16.62891v-16.62891c0,-1.82666 -1.47942,-3.30769 -3.30769,-3.30769zM161.89603,138.83263c-1.82827,0 -3.30769,1.48103 -3.30769,3.30769v16.62891h-16.6289c-1.82827,0 -3.30769,1.48103 -3.30769,3.30769c0,1.82666 1.47942,3.30769 3.30769,3.30769h19.9366c1.82828,0 3.30769,-1.48103 3.30769,-3.30769v-19.9366c0,-1.82666 -1.47942,-3.30769 -3.30769,-3.30769z"></path></g></g></svg><style>@media (prefers-color-scheme: light) { :root { filter: contrast(1) brightness(0.1); } }
@media (prefers-color-scheme: dark) { :root { filter: contrast(0.3846153846153846) brightness(4.5); } }
</style></svg>